<mxfile host="65bd71144e">
    <diagram id="mRvCVPGDT-BCA4jdKjfe" name="ref">
        <mxGraphModel dx="642" dy="304" grid="0" gridSize="10" guides="1" tooltips="1" connect="1" arrows="1" fold="1" page="1" pageScale="1" pageWidth="827" pageHeight="1169" math="0" shadow="0">
            <root>
                <mxCell id="0"/>
                <mxCell id="1" parent="0"/>
                <mxCell id="12" value="" style="group" parent="1" vertex="1" connectable="0">
                    <mxGeometry x="369" y="25" width="135" height="351" as="geometry"/>
                </mxCell>
                <mxCell id="13" value="&lt;font style=&quot;font-size: 24px&quot;&gt;React Component&lt;/font&gt;" style="text;html=1;strokeColor=none;fillColor=none;align=center;verticalAlign=middle;whiteSpace=wrap;rounded=0;" parent="12" vertex="1">
                    <mxGeometry width="135" height="53.99999999999999" as="geometry"/>
                </mxCell>
                <mxCell id="14" value="" style="group" parent="12" vertex="1" connectable="0">
                    <mxGeometry y="59.99999999999999" width="133" height="291" as="geometry"/>
                </mxCell>
                <mxCell id="15" value="AppComponent&lt;br&gt;&lt;br&gt;&lt;br&gt;&lt;br&gt;&lt;br&gt;&lt;br&gt;&lt;br&gt;&lt;br&gt;&lt;br&gt;&lt;br&gt;&lt;br&gt;&lt;br&gt;&lt;br&gt;&lt;br&gt;&lt;br&gt;" style="rounded=0;whiteSpace=wrap;html=1;fillColor=#33001A;align=center;" parent="14" vertex="1">
                    <mxGeometry width="133" height="223.5181598062954" as="geometry"/>
                </mxCell>
                <mxCell id="16" value="dom input" style="rounded=0;whiteSpace=wrap;html=1;fillColor=#190033;" parent="14" vertex="1">
                    <mxGeometry y="138.02033898305086" width="133" height="22.52179176755448" as="geometry"/>
                </mxCell>
                <mxCell id="17" value="dom label" style="rounded=0;whiteSpace=wrap;html=1;fillColor=#190033;" parent="14" vertex="1">
                    <mxGeometry y="180.5142857142857" width="133" height="20.057142857142857" as="geometry"/>
                </mxCell>
                <mxCell id="22" value="&lt;font color=&quot;#000066&quot; style=&quot;font-size: 24px&quot;&gt;ref&lt;/font&gt;" style="rounded=0;whiteSpace=wrap;html=1;fillColor=#FF9933;" parent="14" vertex="1">
                    <mxGeometry y="43.34382566585956" width="133" height="19.85317191283293" as="geometry"/>
                </mxCell>
                <mxCell id="24" value="&lt;font style=&quot;font-size: 24px&quot;&gt;ref&lt;/font&gt;" style="edgeStyle=orthogonalEdgeStyle;shape=flexArrow;rounded=0;orthogonalLoop=1;jettySize=auto;html=1;fillColor=#B3FF66;" parent="14" source="22" target="16" edge="1">
                    <mxGeometry relative="1" as="geometry">
                        <mxPoint x="286" y="57.28329297820824" as="targetPoint"/>
                    </mxGeometry>
                </mxCell>
            </root>
        </mxGraphModel>
    </diagram>
    <diagram name="refForward" id="fNXjhCXZSh74JyYBIgwR">
        <mxGraphModel dx="642" dy="304" grid="0" gridSize="10" guides="1" tooltips="1" connect="1" arrows="1" fold="1" page="1" pageScale="1" pageWidth="827" pageHeight="1169" math="0" shadow="0">
            <root>
                <mxCell id="4s1r9dUnr0sexSHiS92C-0"/>
                <mxCell id="4s1r9dUnr0sexSHiS92C-1" parent="4s1r9dUnr0sexSHiS92C-0"/>
                <mxCell id="4s1r9dUnr0sexSHiS92C-2" value="" style="group" parent="4s1r9dUnr0sexSHiS92C-1" vertex="1" connectable="0">
                    <mxGeometry x="403" y="26" width="135" height="216" as="geometry"/>
                </mxCell>
                <mxCell id="4s1r9dUnr0sexSHiS92C-3" value="&lt;font style=&quot;font-size: 24px&quot;&gt;React Component&lt;/font&gt;" style="text;html=1;strokeColor=none;fillColor=none;align=center;verticalAlign=middle;whiteSpace=wrap;rounded=0;" parent="4s1r9dUnr0sexSHiS92C-2" vertex="1">
                    <mxGeometry width="135" height="67" as="geometry"/>
                </mxCell>
                <mxCell id="4s1r9dUnr0sexSHiS92C-4" value="" style="group" parent="4s1r9dUnr0sexSHiS92C-2" vertex="1" connectable="0">
                    <mxGeometry y="67" width="133" height="149" as="geometry"/>
                </mxCell>
                <mxCell id="4s1r9dUnr0sexSHiS92C-5" value="NameComponent&lt;br&gt;&lt;br&gt;&lt;br&gt;&lt;br&gt;&lt;br&gt;&lt;br&gt;&lt;br&gt;" style="rounded=0;whiteSpace=wrap;html=1;fillColor=#33001A;align=center;" parent="4s1r9dUnr0sexSHiS92C-4" vertex="1">
                    <mxGeometry width="133" height="149" as="geometry"/>
                </mxCell>
                <mxCell id="4s1r9dUnr0sexSHiS92C-6" value="dom" style="rounded=0;whiteSpace=wrap;html=1;fillColor=#190033;" parent="4s1r9dUnr0sexSHiS92C-4" vertex="1">
                    <mxGeometry y="99" width="133" height="30" as="geometry"/>
                </mxCell>
                <mxCell id="4s1r9dUnr0sexSHiS92C-7" value="dom" style="rounded=0;whiteSpace=wrap;html=1;fillColor=#190033;" parent="4s1r9dUnr0sexSHiS92C-4" vertex="1">
                    <mxGeometry y="56" width="133" height="30" as="geometry"/>
                </mxCell>
                <mxCell id="4s1r9dUnr0sexSHiS92C-8" value="" style="group" parent="4s1r9dUnr0sexSHiS92C-1" vertex="1" connectable="0">
                    <mxGeometry x="47" y="22" width="135" height="395.74496644295306" as="geometry"/>
                </mxCell>
                <mxCell id="4s1r9dUnr0sexSHiS92C-9" value="&lt;font style=&quot;font-size: 24px&quot;&gt;React Component&lt;/font&gt;" style="text;html=1;strokeColor=none;fillColor=none;align=center;verticalAlign=middle;whiteSpace=wrap;rounded=0;" parent="4s1r9dUnr0sexSHiS92C-8" vertex="1">
                    <mxGeometry width="135" height="57" as="geometry"/>
                </mxCell>
                <mxCell id="4s1r9dUnr0sexSHiS92C-10" value="AppComponent&lt;br&gt;&lt;br&gt;&lt;br&gt;&lt;br&gt;&lt;br&gt;&lt;br&gt;&lt;br&gt;&lt;br&gt;&lt;br&gt;&lt;br&gt;&lt;br&gt;&lt;br&gt;&lt;br&gt;&lt;br&gt;&lt;br&gt;&lt;br&gt;&lt;br&gt;" style="rounded=0;whiteSpace=wrap;html=1;fillColor=#33001A;align=center;" parent="4s1r9dUnr0sexSHiS92C-8" vertex="1">
                    <mxGeometry y="66" width="133" height="329.74496644295306" as="geometry"/>
                </mxCell>
                <mxCell id="4s1r9dUnr0sexSHiS92C-11" value="dom city" style="rounded=0;whiteSpace=wrap;html=1;fillColor=#190033;" parent="4s1r9dUnr0sexSHiS92C-8" vertex="1">
                    <mxGeometry y="295.89" width="133" height="32.11" as="geometry"/>
                </mxCell>
                <mxCell id="4s1r9dUnr0sexSHiS92C-12" value="dom input name" style="rounded=0;whiteSpace=wrap;html=1;fillColor=#190033;" parent="4s1r9dUnr0sexSHiS92C-8" vertex="1">
                    <mxGeometry y="240" width="133" height="36.96" as="geometry"/>
                </mxCell>
                <mxCell id="4s1r9dUnr0sexSHiS92C-13" value="&lt;font color=&quot;#000066&quot; style=&quot;font-size: 24px&quot;&gt;myref&lt;/font&gt;" style="rounded=0;whiteSpace=wrap;html=1;fillColor=#FF9933;" parent="4s1r9dUnr0sexSHiS92C-8" vertex="1">
                    <mxGeometry y="181" width="133" height="36.96" as="geometry"/>
                </mxCell>
                <mxCell id="4s1r9dUnr0sexSHiS92C-14" value="&lt;font style=&quot;font-size: 24px&quot;&gt;ref&lt;/font&gt;" style="edgeStyle=orthogonalEdgeStyle;shape=flexArrow;rounded=0;orthogonalLoop=1;jettySize=auto;html=1;fillColor=#B3FF66;" parent="4s1r9dUnr0sexSHiS92C-1" source="4s1r9dUnr0sexSHiS92C-13" target="4s1r9dUnr0sexSHiS92C-5" edge="1">
                    <mxGeometry relative="1" as="geometry"/>
                </mxCell>
                <mxCell id="4s1r9dUnr0sexSHiS92C-15" value="&lt;font style=&quot;font-size: 24px&quot;&gt;refForward&lt;/font&gt;" style="text;html=1;resizable=0;autosize=1;align=center;verticalAlign=middle;points=[];fillColor=none;strokeColor=none;rounded=0;" parent="4s1r9dUnr0sexSHiS92C-1" vertex="1">
                    <mxGeometry x="249" y="121" width="126" height="22" as="geometry"/>
                </mxCell>
            </root>
        </mxGraphModel>
    </diagram>
</mxfile>